PathFileType	4	(X/Y/Z)	Walk8.trc
DataRate	CameraRate	NumFrames	NumMarkers	Units	OrigDataRate	OrigDataStartFrame	OrigNumFrames
200.000000	200.000000	8	54	mm	200.000000	484	521
Frame#	Times		RBHD		C7		RASI		RACR1		RUA1		RElbow		RFA1		RWRU		RCAR		LACR1		LElbowM		LFA1		LWRR		RTH1		RTH3		RTH2		RLFC		RTB1		RTB3		RTB2		RTB4		RMT1		RMT5		LTH2		RTH4		LWRU		LTH3		LTH4		LElbow		LPSI		RPSI		LTB1		LLFC		T10		RWRR		LTB4		LTB3		LBHD		LTH1		LMT1		RBack		LCAL		CLAV		LTB2		LLMAL		LToe		RLMAL		LMT5		RMMAL		RElbowM		RToe		LUA1		LCAR		RCAL
			X1	Y1	Z1	X2	Y2	Z2	X3	Y3	Z3	X4	Y4	Z4	X5	Y5	Z5	X6	Y6	Z6	X7	Y7	Z7	X8	Y8	Z8	X9	Y9	Z9	X10	Y10	Z10	X11	Y11	Z11	X12	Y12	Z12	X13	Y13	Z13	X14	Y14	Z14	X15	Y15	Z15	X16	Y16	Z16	X17	Y17	Z17	X18	Y18	Z18	X19	Y19	Z19	X20	Y20	Z20	X21	Y21	Z21	X22	Y22	Z22	X23	Y23	Z23	X24	Y24	Z24	X25	Y25	Z25	X26	Y26	Z26	X27	Y27	Z27	X28	Y28	Z28	X29	Y29	Z29	X30	Y30	Z30	X31	Y31	Z31	X32	Y32	Z32	X33	Y33	Z33	X34	Y34	Z34	X35	Y35	Z35	X36	Y36	Z36	X37	Y37	Z37	X38	Y38	Z38	X39	Y39	Z39	X40	Y40	Z40	X41	Y41	Z41	X42	Y42	Z42	X43	Y43	Z43	X44	Y44	Z44	X45	Y45	Z45	X46	Y46	Z46	X47	Y47	Z47	X48	Y48	Z48	X49	Y49	Z49	X50	Y50	Z50	X51	Y51	Z51	X52	Y52	Z52	X53	Y53	Z53	X54	Y54	Z54

484	2.42	1197.8	1588	348.54	1154.4	1452.9	272.1	1253.9	958.59	401.08	1226.4	1407	411.68	1211.2	1222.2	506.17	1189.4	1094.4	549.61	1279.9	973.44	565.24	1325.3	851.87	557.15	1380.7	820.65	562.3	1178.7	1445.4	94.111	1048.6	1132.8	66.837	1149.5	996.37	-44.734	1205	894.08	-3.0619	1200.9	747.78	450.16	1197.5	561.36	421.55	1264.2	659.86	403.49	1191.7	456.33	403.62	1205.8	362.65	317.22	1165.1	176.47	312.37	1183.8	267.2	388.91	1188	271.02	317.21	1239.3	34.554	269.84	1214.4	30.952	359.6	1353.1	709.11	84.43	1200.5	649.25	434.73	1132.7	877.79	-37.475	1332.4	595.18	70.908	1288	673.32	61.19	1066.5	1133	-11.589	1068	968.76	200.7	1068.7	974.98	305.64	1387.3	390.8	142.4	1365.6	492	86.055	1059.9	1141.8	256.92	1380.1	877.61	517.2	1336.2	313.77	152.15	1288.8	235.07	160.44	1189.3	1598.1	209.75	1242	759.93	61.878	1310.2	65.718	201.59	1088.9	1355.4	371.42	1119.4	125.71	197.87	1288	1372.9	247.28	1303.2	327.62	89.755	1173.8	152.66	145.66	1349.5	65.487	175.48	1095.5	80.182	356.27	1278.4	67.359	124.9	1114.5	94.141	267.78	1163.9	1057.7	460.4	1293.8	30.551	289.69	1112	1257.1	0.58791	1204.9	839.11	-49.829	1039.2	33.499	318.91
485	2.425	1203.8	1587.8	347.7	1160.6	1452.6	271.69	1259.4	958.01	401.1	1232.6	1407	411.22	1218.2	1222.6	506.44	1198	1094.7	550.43	1290.9	975.45	565.69	1339	854.77	557.08	1394.8	824.88	562.09	1184.5	1444.8	93.684	1053	1132.7	67.237	1152.4	995.85	-45.026	1207.7	893.3	-3.8985	1205.3	747.61	450.03	1200.2	561.19	421.69	1267.7	659.12	403.26	1193.4	456.07	403.69	1207	362.29	317.3	1165.6	176.28	312.39	1184.7	266.94	388.96	1188.8	270.67	317.35	1239.4	34.499	269.74	1214.5	30.861	359.55	1359.9	710.15	83.936	1204.1	648.85	434.65	1135.1	877.3	-37.416	1340.1	596.07	70.465	1295.2	673.92	60.525	1070.4	1132.8	-11.151	1074.1	968.56	200.21	1074.5	974.76	305.16	1398.2	392.2	141.73	1373.9	492.72	85.647	1066	1141.6	256.53	1393	882	517.23	1349.6	313.59	151.43	1305.1	233.42	159.67	1195.4	1597.6	208.91	1248.6	760.21	61.217	1332.2	64.762	200.32	1095.1	1355.2	371.17	1139.6	118.61	197.43	1294.4	1372.6	246.82	1316.2	326.36	89.088	1193.5	146.81	145.53	1371.8	65.699	173.98	1095.6	80.213	356.17	1300	65.432	123.73	1114.6	94.13	267.72	1173.1	1057.4	461.35	1294	30	289.58	1116.5	1256.8	0.66173	1207	838.37	-50.622	1039.3	33.63	318.87
486	2.43	1209.7	1587.5	346.86	1166.8	1452.3	271.27	1265	957.36	401.12	1238.9	1406.9	410.75	1225.2	1223	506.69	1206.6	1095.1	551.21	1301.9	977.44	566.11	1352.3	857.62	556.97	1408.8	829.14	561.84	1190.5	1444.1	93.248	1057.5	1132.4	67.637	1155.4	995.25	-45.309	1210.6	892.42	-4.7374	1209.7	747.4	449.89	1203	560.97	421.79	1271.3	658.34	403.01	1195.2	455.78	403.74	1208.4	361.9	317.38	1166.1	176.07	312.39	1185.6	266.67	388.98	1189.7	270.3	317.46	1239.5	34.442	269.63	1214.5	30.763	359.49	1366.7	711.01	83.473	1207.8	648.46	434.61	1137.5	876.74	-37.358	1347.7	596.81	70.066	1302.3	674.38	59.883	1074.5	1132.6	-10.709	1080.1	968.28	199.72	1080.3	974.47	304.68	1408.8	393.51	141.06	1381.8	493.27	85.277	1072.1	1141.3	256.13	1405.7	886.39	517.25	1363	313.39	150.68	1321.4	231.8	158.86	1201.4	1597	208.06	1255	760.38	60.558	1354.2	63.987	199	1101.4	1355	370.9	1160	111.61	196.88	1300.8	1372.1	246.35	1329	325.06	88.404	1213.4	140.95	145.39	1394.2	66.081	172.44	1095.8	80.247	356.09	1321.7	63.657	122.51	1114.8	94.118	267.66	1182.2	1057.1	462.29	1294.2	29.437	289.48	1121	1256.4	0.7311	1209.1	837.55	-51.425	1039.3	33.769	318.84
487	2.435	1215.7	1587.2	346.01	1173.1	1451.8	270.83	1270.5	956.66	401.13	1245.2	1406.7	410.28	1232.3	1223.3	506.92	1215.2	1095.3	551.97	1312.7	979.42	566.51	1365.1	860.4	556.84	1422.7	833.4	561.55	1196.4	1443.4	92.804	1062.1	1132.2	68.037	1158.4	994.58	-45.583	1213.4	891.44	-5.5716	1214.2	747.14	449.74	1205.9	560.7	421.86	1274.9	657.53	402.75	1197.1	455.47	403.76	1209.7	361.47	317.45	1166.7	175.86	312.38	1186.6	266.39	388.99	1190.7	269.92	317.54	1239.6	34.384	269.53	1214.5	30.658	359.43	1373.4	711.7	83.038	1211.6	648.08	434.6	1140	876.11	-37.301	1355.1	597.38	69.709	1309.3	674.7	59.265	1078.6	1132.3	-10.266	1086.1	967.93	199.23	1086.1	974.12	304.19	1419.1	394.74	140.4	1389.5	493.64	84.946	1078.2	1140.9	255.71	1418.2	890.78	517.24	1376.2	313.17	149.9	1337.7	230.24	157.98	1207.5	1596.3	207.21	1261.5	760.43	59.901	1376.4	63.413	197.63	1107.6	1354.7	370.62	1180.6	104.76	196.21	1307.2	1371.5	245.87	1341.8	323.72	87.706	1233.7	135.11	145.23	1416.7	66.647	170.89	1095.9	80.286	356.01	1343.6	62.055	121.24	1115	94.106	267.59	1191.2	1056.7	463.19	1294.4	28.866	289.37	1125.7	1255.9	0.79367	1211.3	836.64	-52.235	1039.3	33.918	318.8
488	2.44	1221.7	1586.8	345.16	1179.3	1451.4	270.39	1276.1	955.91	401.12	1251.4	1406.5	409.79	1239.3	1223.5	507.12	1223.7	1095.5	552.69	1323.5	981.38	566.88	1377.4	863.08	556.69	1436.4	837.68	561.24	1202.4	1442.6	92.349	1066.8	1131.8	68.437	1161.4	993.83	-45.846	1216.2	890.36	-6.3947	1218.7	746.84	449.58	1208.8	560.37	421.9	1278.6	656.69	402.48	1199.1	455.15	403.76	1211.1	361.02	317.5	1167.3	175.64	312.35	1187.6	266.09	388.97	1191.7	269.53	317.6	1239.7	34.325	269.42	1214.6	30.548	359.35	1380	712.19	82.629	1215.4	647.71	434.63	1142.5	875.43	-37.246	1362.3	597.78	69.391	1316.1	674.88	58.671	1082.8	1132	-9.8263	1092.1	967.52	198.74	1092	973.71	303.69	1429.2	395.89	139.75	1397	493.82	84.655	1084.3	1140.6	255.27	1430.7	895.15	517.21	1389.3	312.94	149.11	1354.1	228.75	157.05	1213.5	1595.6	206.35	1267.8	760.38	59.248	1398.5	63.058	196.21	1113.9	1354.3	370.32	1201.4	98.077	195.42	1313.8	1370.9	245.38	1354.4	322.36	86.992	1254.2	129.32	145.06	1439.2	67.409	169.32	1096.1	80.33	355.95	1365.5	60.649	119.92	1115.1	94.096	267.52	1200.3	1056.3	464.06	1294.6	28.295	289.27	1130.5	1255.3	0.84714	1213.4	835.66	-53.05	1039.4	34.078	318.77
489	2.445	1227.7	1586.3	344.29	1185.6	1450.8	269.93	1281.6	955.11	401.1	1257.7	1406.2	409.3	1246.3	1223.6	507.31	1232.3	1095.7	553.38	1334.2	983.32	567.23	1389	865.65	556.52	1449.9	841.96	560.89	1208.5	1441.8	91.883	1071.5	1131.5	68.837	1164.5	993.01	-46.1	1219.1	889.19	-7.2007	1223.3	746.49	449.41	1211.8	560.01	421.91	1282.3	655.81	402.19	1201.1	454.81	403.74	1212.6	360.54	317.54	1167.9	175.41	312.31	1188.7	265.79	388.94	1192.8	269.12	317.63	1239.8	34.266	269.31	1214.6	30.434	359.26	1386.5	712.49	82.244	1219.2	647.38	434.7	1144.9	874.68	-37.194	1369.3	598.01	69.11	1322.8	674.91	58.101	1087.2	1131.6	-9.3917	1098.1	967.03	198.24	1097.8	973.24	303.19	1439.1	396.95	139.11	1404.2	493.82	84.405	1090.3	1140.1	254.81	1442.9	899.51	517.16	1402.3	312.71	148.3	1370.4	227.34	156.07	1219.6	1594.8	205.48	1274.2	760.22	58.599	1420.7	62.939	194.77	1120.2	1353.9	370	1222.5	91.605	194.5	1320.3	1370.2	244.87	1367	320.98	86.265	1275	123.63	144.86	1461.8	68.376	167.75	1096.3	80.384	355.89	1387.5	59.459	118.57	1115.3	94.089	267.44	1209.3	1055.9	464.89	1294.8	27.729	289.17	1135.4	1254.7	0.88919	1215.5	834.6	-53.865	1039.4	34.251	318.73
490	2.45	1233.7	1585.8	343.42	1191.9	1450.2	269.47	1287.1	954.29	401.06	1264.1	1405.8	408.79	1253.3	1223.7	507.46	1240.8	1095.8	554.03	1344.8	985.24	567.55	1399.9	868.06	556.34	1463.2	846.24	560.52	1214.6	1440.9	91.407	1076.4	1131.1	69.236	1167.7	992.13	-46.345	1222	887.92	-7.9848	1227.8	746.11	449.24	1214.9	559.6	421.88	1286.1	654.91	401.9	1203.2	454.45	403.69	1214.1	360.04	317.56	1168.6	175.17	312.25	1189.8	265.48	388.89	1193.9	268.71	317.63	1239.9	34.208	269.21	1214.6	30.317	359.17	1392.8	712.6	81.881	1223.1	647.06	434.79	1147.4	873.88	-37.145	1376.2	598.06	68.862	1329.4	674.79	57.555	1091.6	1131.1	-8.9651	1104.1	966.48	197.74	1103.6	972.7	302.68	1448.7	397.94	138.5	1411.1	493.63	84.196	1096.4	1139.6	254.33	1455	903.84	517.07	1415.1	312.5	147.47	1386.7	226.03	155.03	1225.8	1594	204.61	1280.4	759.93	57.955	1442.8	63.071	193.31	1126.5	1353.5	369.67	1243.6	85.373	193.46	1327	1369.5	244.35	1379.4	319.62	85.526	1295.9	118.08	144.62	1484.3	69.554	166.2	1096.5	80.448	355.84	1409.6	58.501	117.18	1115.5	94.087	267.36	1218.4	1055.5	465.69	1295	27.174	289.07	1140.4	1254.1	0.91759	1217.6	833.47	-54.679	1039.4	34.438	318.69
491	2.455	1239.7	1585.2	342.53	1198.1	1449.6	268.99	1292.7	953.44	401.01	1270.4	1405.4	408.27	1260.3	1223.8	507.58	1249.2	1095.9	554.65	1355.3	987.14	567.84	1409.9	870.3	556.15	1476.4	850.51	560.12	1220.7	1440	90.918	1081.3	1130.6	69.634	1170.9	991.18	-46.58	1224.8	886.56	-8.7428	1232.5	745.69	449.06	1218	559.16	421.82	1289.9	653.99	401.6	1205.4	454.08	403.62	1215.7	359.51	317.56	1169.3	174.92	312.18	1191	265.17	388.82	1195.1	268.29	317.59	1240.1	34.15	269.11	1214.7	30.2	359.07	1399.1	712.5	81.538	1227	646.77	434.92	1150	873.03	-37.1	1382.8	597.92	68.642	1335.8	674.52	57.033	1096.1	1130.7	-8.5489	1110.2	965.87	197.23	1109.5	972.11	302.15	1458.1	398.85	137.91	1417.8	493.26	84.029	1102.6	1139.1	253.84	1466.9	908.13	516.97	1427.7	312.3	146.64	1403	224.83	153.95	1231.9	1593.1	203.73	1286.6	759.54	57.317	1464.9	63.466	191.82	1132.9	1352.9	369.33	1264.9	79.413	192.3	1333.6	1368.6	243.81	1391.7	318.26	84.776	1317	112.7	144.33	1506.8	70.944	164.68	1096.7	80.526	355.79	1431.6	57.795	115.78	1115.7	94.092	267.26	1227.4	1055	466.44	1295.2	26.636	288.98	1145.5	1253.3	0.93012	1219.7	832.27	-55.487	1039.5	34.643	318.65
